<svg xmlns="http://www.w3.org/2000/svg" version="1.1" xmlns:xlink="http://www.w3.org/1999/xlink" xmlns:svgjs="http://svgjs.dev/svgjs" width="1000" height="133" viewBox="0 0 1000 133"><g transform="matrix(1,0,0,1,-0.6060606060606233,0.13858253397151543)"><svg viewBox="0 0 396 53" data-background-color="#ffffff" preserveAspectRatio="xMidYMid meet" height="133" width="1000" xmlns="http://www.w3.org/2000/svg" xmlns:xlink="http://www.w3.org/1999/xlink"><g id="tight-bounds" transform="matrix(1,0,0,1,0.2400000000000091,-0.05522461880067908)"><svg viewBox="0 0 395.52 53.11044746120728" height="53.11044746120728" width="395.52"><g><svg viewBox="0 0 469.4265436412969 63.03462222632794" height="53.11044746120728" width="395.52"><g transform="matrix(1,0,0,1,73.906543641297,8.711731436489607)"><svg viewBox="0 0 395.5199999999999 45.611159353348725" height="45.611159353348725" width="395.5199999999999"><g><svg viewBox="0 0 395.5199999999999 45.611159353348725" height="45.611159353348725" width="395.5199999999999"><g><svg viewBox="0 0 395.5199999999999 45.611159353348725" height="45.611159353348725" width="395.5199999999999"><g transform="matrix(1,0,0,1,0,0)"><svg width="395.5199999999999" viewBox="1.3700000047683716 -36.060001373291016 317.1100158691406 36.56999969482422" height="45.611159353348725" data-palette-color="#333333"><path d="M24.15 0L9.81 0 9.81-4 13.65-4.74 13.65-30.44 6.84-30.44 6.37-26.05 1.37-26.05 1.37-35.55 32.62-35.55 32.62-26.05 27.59-26.05 27.12-30.44 20.29-30.44 20.29-4.74 24.15-4 24.15 0ZM42.14 0L30.44 0 30.44-4 33.01-4.37 44.55-35.55 51.17-35.55 62.62-4.37 65.16-4 65.16 0 53.46 0 53.46-4 55.98-4.47 54.25-9.69 41.38-9.69 39.65-4.47 42.14-4 42.14 0ZM47.39-27.29L43.02-14.7 52.61-14.7 48.24-27.34 47.9-28.37 47.75-28.37 47.39-27.29ZM81.95 0.51L81.95 0.51Q78.17 0.51 74.98-0.38 71.8-1.27 68.77-3.39L68.77-3.39 68.77-11.79 73.9-11.79 74.68-6.62Q75.87-5.69 77.79-5.13 79.71-4.57 81.95-4.57L81.95-4.57Q84-4.57 85.41-5.14 86.81-5.71 87.54-6.77 88.28-7.84 88.28-9.25L88.28-9.25Q88.28-10.62 87.62-11.66 86.96-12.7 85.46-13.54 83.95-14.38 81.39-15.14L81.39-15.14Q77.29-16.28 74.56-17.75 71.82-19.21 70.47-21.28 69.11-23.34 69.11-26.2L69.11-26.2Q69.11-29.05 70.69-31.26 72.26-33.47 75.06-34.74 77.85-36.01 81.49-36.04L81.49-36.04Q85.54-36.08 88.64-35.03 91.74-33.98 93.94-32.2L93.94-32.2 93.94-24.39 88.94-24.39 88.03-29.3Q87.06-29.96 85.47-30.42 83.88-30.88 81.81-30.88L81.81-30.88Q80.02-30.88 78.66-30.33 77.29-29.79 76.51-28.74 75.73-27.69 75.73-26.22L75.73-26.22Q75.73-24.95 76.41-24 77.09-23.05 78.71-22.24 80.32-21.44 83.08-20.58L83.08-20.58Q88.91-18.99 91.93-16.3 94.94-13.6 94.94-9.3L94.94-9.3Q94.94-6.32 93.32-4.11 91.69-1.9 88.78-0.7 85.86 0.51 81.95 0.51ZM128.41-30.86L107.24-9.03 103.8-13.01 121.09-31.1 121.14-31.2 117.81-31.52 117.81-35.55 131.76-35.55 131.76-31.52 128.41-30.86ZM112.18 0L98.01 0 98.01-4 101.85-4.74 101.85-30.79 98.01-31.52 98.01-35.55 112.18-35.55 112.18-31.52 108.49-30.79 108.49-4.74 112.18-4 112.18 0ZM133.02 0L118.6 0 118.6-4 121.84-4.32 121.84-4.35 112.64-17.04 116.94-21.56 129.58-4.61 133.02-4 133.02 0ZM170.47 0L156.14 0 156.14-4 159.97-4.74 159.97-30.44 153.16-30.44 152.7-26.05 147.69-26.05 147.69-35.55 178.94-35.55 178.94-26.05 173.91-26.05 173.45-30.44 166.61-30.44 166.61-4.74 170.47-4 170.47 0ZM188.46 0L176.77 0 176.77-4 179.33-4.37 190.88-35.55 197.49-35.55 208.94-4.37 211.48-4 211.48 0 199.79 0 199.79-4 202.3-4.47 200.57-9.69 187.7-9.69 185.97-4.47 188.46-4 188.46 0ZM193.71-27.29L189.34-14.7 198.94-14.7 194.57-27.34 194.22-28.37 194.08-28.37 193.71-27.29ZM228.45 0L214.14 0 214.14-4 217.95-4.74 217.95-30.79 214.14-31.52 214.14-35.55 217.95-35.55 224.69-35.55 240.58-10.25 240.73-10.28 240.73-30.79 236.21-31.52 236.21-35.55 246.69-35.55 250.52-35.55 250.52-31.52 246.69-30.79 246.69 0 240.31 0 224.08-25.12 223.93-25.1 223.93-4.74 228.45-4 228.45 0ZM269.63 0.51L269.63 0.51Q264.41 0.51 260.7-1.71 256.99-3.93 255.01-7.86 253.03-11.79 253.03-16.99L253.03-16.99 253.03-18.07Q253.03-23.41 255.01-27.45 256.99-31.49 260.56-33.78 264.14-36.06 268.97-36.06L268.97-36.06Q272.88-36.06 276.14-35.03 279.4-34.01 281.82-32.01L281.82-32.01 281.82-24.27 276.81-24.27 275.91-29.13Q274.91-29.93 273.27-30.41 271.64-30.88 269.49-30.88L269.49-30.88Q266.51-30.88 264.29-29.28 262.06-27.69 260.86-24.8 259.65-21.92 259.65-18.12L259.65-18.12 259.65-16.99Q259.65-13.23 260.83-10.46 262.02-7.69 264.27-6.16 266.53-4.64 269.8-4.64L269.8-4.64Q271.81-4.64 273.41-5 275-5.37 276.08-5.91L276.08-5.91 276.08-12.43 270.63-12.79 270.63-17.5 282.74-17.5 282.74-3.25Q280.55-1.61 277.31-0.55 274.08 0.51 269.63 0.51ZM302.61 0.51L302.61 0.51Q299.05 0.51 296.14-0.82 293.24-2.15 291.15-4.58 289.06-7.01 287.94-10.29 286.82-13.57 286.82-17.5L286.82-17.5 286.82-18.04Q286.82-21.95 287.94-25.23 289.06-28.52 291.15-30.94 293.24-33.37 296.13-34.72 299.03-36.06 302.59-36.06L302.59-36.06Q306.23-36.06 309.14-34.72 312.06-33.37 314.16-30.94 316.26-28.52 317.37-25.23 318.48-21.95 318.48-18.04L318.48-18.04 318.48-17.5Q318.48-13.57 317.37-10.29 316.26-7.01 314.17-4.58 312.09-2.15 309.16-0.82 306.23 0.51 302.61 0.51ZM302.61-4.71L302.61-4.71Q305.74-4.71 307.79-6.31 309.84-7.91 310.85-10.79 311.87-13.67 311.87-17.5L311.87-17.5 311.87-18.09Q311.87-21.88 310.84-24.73 309.82-27.59 307.75-29.2 305.69-30.81 302.59-30.81L302.59-30.81Q299.56-30.81 297.54-29.21 295.51-27.61 294.5-24.76 293.48-21.9 293.48-18.09L293.48-18.09 293.48-17.5Q293.48-13.7 294.5-10.8 295.51-7.91 297.55-6.31 299.59-4.71 302.61-4.71Z" opacity="1" transform="matrix(1,0,0,1,0,0)" fill="#333333" class="undefined-text-0" data-fill-palette-color="primary" id="text-0"></path></svg></g></svg></g></svg></g></svg></g><g><svg viewBox="0 0 63.13884358579585 63.03462222632794" height="63.03462222632794" width="63.13884358579585"><g><svg xmlns="http://www.w3.org/2000/svg" xmlns:xlink="http://www.w3.org/1999/xlink" version="1.1" x="0" y="0" viewBox="0 0.20499849319458008 99.95999908447266 99.79499816894531" enable-background="new 0 0 100 100" xml:space="preserve" height="63.03462222632794" width="63.13884358579585" class="icon-icon-0" data-fill-palette-color="accent" id="icon-0"><g fill="#c8e79d" data-fill-palette-color="accent"><circle cx="49.98" cy="50.02" r="8.3" fill="#c8e79d" data-fill-palette-color="accent"></circle><path d="M57.492 7.246c0 3.889-3.152 26.404-7.041 26.404-3.888 0-7.041-22.516-7.041-26.404s3.153-7.041 7.041-7.041C54.34 0.205 57.492 3.357 57.492 7.246z" fill="#c8e79d" data-fill-palette-color="accent"></path><path d="M43.41 92.958c0-3.889 3.153-26.403 7.041-26.403 3.889 0 7.041 22.515 7.041 26.403S54.34 100 50.451 100C46.563 100 43.41 96.847 43.41 92.958z" fill="#c8e79d" data-fill-palette-color="accent"></path><path d="M85.757 24.872c-2.791 2.707-21.142 16.131-23.849 13.341-2.708-2.79 11.248-20.736 14.038-23.445 2.79-2.707 7.249-2.643 9.956 0.148C88.612 17.705 88.546 22.163 85.757 24.872z" fill="#c8e79d" data-fill-palette-color="accent"></path><path d="M14.773 75.181c2.79-2.708 21.14-16.129 23.849-13.342 2.707 2.792-11.249 20.736-14.039 23.445-2.789 2.71-7.247 2.645-9.955-0.146C11.919 82.348 11.985 77.892 14.773 75.181z" fill="#c8e79d" data-fill-palette-color="accent"></path><path d="M74.163 86.315c-2.63-2.866-15.548-21.574-12.685-24.207C64.342 59.479 81.9 73.92 84.53 76.785c2.633 2.861 2.445 7.316-0.416 9.947C81.25 89.364 76.797 89.177 74.163 86.315z" fill="#c8e79d" data-fill-palette-color="accent"></path><path d="M24.717 14.668c2.716 2.781 16.189 21.094 13.407 23.809-2.781 2.717-20.767-11.188-23.483-13.973-2.717-2.779-2.664-7.239 0.12-9.957C17.542 11.832 22.002 11.885 24.717 14.668z" fill="#c8e79d" data-fill-palette-color="accent"></path><path d="M7.041 42.756c3.89 0 26.403 3.154 26.403 7.042 0 3.889-22.514 7.042-26.403 7.042C3.153 56.84 0 53.687 0 49.798 0 45.91 3.153 42.756 7.041 42.756z" fill="#c8e79d" data-fill-palette-color="accent"></path><path d="M92.918 57.059c-3.889 0-26.402-3.15-26.402-7.039s22.514-7.041 26.402-7.041c3.89 0 7.042 3.152 7.042 7.041S96.808 57.059 92.918 57.059z" fill="#c8e79d" data-fill-palette-color="accent"></path></g></svg></g></svg></g></svg></g><defs></defs></svg><rect width="395.52" height="53.11044746120728" fill="none" stroke="none" visibility="hidden"></rect></g></svg></g></svg>